<svg xmlns="http://www.w3.org/2000/svg" viewBox="0 0 100 125" x="0px" y="0px"><title>Artboard 1</title><path d="M49.82,56.18a2.28,2.28,0,0,1-2-1.14L35.53,33.73a6.75,6.75,0,0,1,4-9.87l3.14-.9a6.75,6.75,0,0,1,8.61,6.26l.84,24.6a2.28,2.28,0,0,1-1.65,2.27h0A2.29,2.29,0,0,1,49.82,56.18ZM50.18,55h0ZM44.53,24.7a4.78,4.78,0,0,0-1.32.19l-3.14.9a4.75,4.75,0,0,0-2.8,6.94L49.58,54a.28.28,0,0,0,.52-.15l-.84-24.6a4.76,4.76,0,0,0-4.74-4.59Z"/><path d="M36.56,34a1,1,0,0,1-.27-2l2.88-.83a1,1,0,1,1,.55,1.92L36.84,34A1,1,0,0,1,36.56,34Z"/><path d="M46,34.43a1,1,0,0,1-.27-2l3.85-1.1a1,1,0,0,1,.55,1.92l-3.85,1.1A1,1,0,0,1,46,34.43Z"/><path d="M40.41,40.21a1,1,0,0,1-.27-2L43,37.42a1,1,0,1,1,.55,1.92l-2.88.83A1,1,0,0,1,40.41,40.21Z"/><path d="M44,45.42a1,1,0,0,1-.27-2l2.88-.83a1,1,0,1,1,.55,1.92l-2.88.83A1,1,0,0,1,44,45.42Z"/><path d="M42.92,24.91a1,1,0,0,1-.84-.46A1,1,0,0,1,40.23,24c-.1-1.69-.23-3.36-.37-4.94-.37-4.1-.85-7.45-.85-7.49a1,1,0,0,1,1.64-.9c.16.14,3.91,3.4,4.32,7.92a11.29,11.29,0,0,1-1.14,5.77A1,1,0,0,1,42.92,24.91ZM41.41,14.6c.14,1.21.3,2.68.44,4.25.12,1.37.24,2.8.33,4.26A9.08,9.08,0,0,0,43,18.75,9.22,9.22,0,0,0,41.41,14.6Z"/><path d="M39.48,25.92a1,1,0,0,1-.55-.16,11.31,11.31,0,0,1-4-4.31c-2-4.05-.6-8.81-.53-9a1,1,0,0,1,.9-.7,1,1,0,0,1,1,.59s1.39,3.13,3.24,6.8c.71,1.4,1.47,2.85,2.26,4.31a1,1,0,0,1-1.24,1.41,1,1,0,0,1-1,1.06Zm-3.67-9.71a9.22,9.22,0,0,0,.87,4.34,9.08,9.08,0,0,0,3,3.28c-.69-1.28-1.35-2.55-2-3.79C37,18.64,36.33,17.31,35.81,16.21Z"/><path d="M27.43,29.54a1,1,0,0,1-.4-.08c-.29-.13-7.23-3.21-8.86-9.13S20.92,8.21,21.11,8a1,1,0,0,1,1.21-.33c.29.13,7.23,3.21,8.86,9.13h0c1.63,5.92-2.75,12.12-2.94,12.38A1,1,0,0,1,27.43,29.54ZM22.28,9.83c-1,1.67-3.27,6-2.18,10s5.25,6.53,7,7.45c1-1.68,3.27-6,2.18-10h0C28.17,13.32,24,10.74,22.28,9.83Z"/><path d="M32,37.63a1,1,0,0,1-.82-.43l-.68-1A55.8,55.8,0,0,1,22.21,18l-.29-1.15a1,1,0,0,1,1.94-.49l.29,1.15a53.81,53.81,0,0,0,8,17.56l.68,1A1,1,0,0,1,32,37.63Z"/><path d="M70.07,61a1,1,0,0,1-.85-.47l-1.62-2.59-8.85-1.18a1,1,0,0,1-.38-1.85l7.22-4.25c-.45-5.89-.19-13.8,3.37-19.32,6.18-9.6,21.22-10.63,21.85-10.67a1,1,0,0,1,1,.64c.23.6,5.51,14.71-.67,24.31C87.48,51.32,80,54.89,74.43,56.87A1,1,0,0,1,73.76,55c5.3-1.88,12.33-5.22,15.7-10.45,4.9-7.61,1.7-18.88.73-21.8-3.06.34-14.66,2.09-19.55,9.69-3.38,5.25-3.5,13.06-3,18.69a1,1,0,0,1-.49.95l-5.26,3.1,6.44.86a1,1,0,0,1,.72.46l1.87,3A1,1,0,0,1,70.07,61Z"/><path d="M73.69,61h-.1a1,1,0,0,1-.89-1.1l.41-4.07a1,1,0,0,1,2,.2l-.41,4.07A1,1,0,0,1,73.69,61Z"/><path d="M71.27,46.47H71.2a1,1,0,0,1-.94-1.06c.32-5,1.48-9.14,3.45-12.2a1,1,0,0,1,1.68,1.08c-1.79,2.77-2.84,6.56-3.14,11.25A1,1,0,0,1,71.27,46.47Z"/><path d="M92.73,39.31a1,1,0,0,1-.37-.07l-2.91-1.17a40.48,40.48,0,0,1-12.79-8.24l-2.27-2.16a1,1,0,1,1,1.38-1.45L78,28.38A38.49,38.49,0,0,0,90.2,36.21l2.91,1.17a1,1,0,0,1-.37,1.93Z"/><circle cx="83.18" cy="28.09" r="1.5" transform="translate(14.53 82.82) rotate(-57.22)"/><path d="M61.95,32.75a1,1,0,0,1-.13-2c3.46-.46,6.74-3.86,8-8.26a12.14,12.14,0,0,0-1.59-10.34,1,1,0,0,1-.21-.61,2.18,2.18,0,0,1,.34-1.07,2.08,2.08,0,0,0,.14-.28,3,3,0,0,0-2.07-3.68,3,3,0,0,0-2.26.24A2.83,2.83,0,0,0,62.76,8.5a4.39,4.39,0,0,0-.09.5,1,1,0,0,1-.79,1c-3.14,1-5.9,4.16-7,8.2-1.27,4.54-.21,9.23,2.6,11.41a1,1,0,0,1-1.23,1.58c-3.43-2.67-4.79-8.23-3.3-13.53,1.25-4.45,4.29-8.07,7.84-9.39,0-.1,0-.2.07-.29A4.81,4.81,0,0,1,63.2,5a5,5,0,0,1,6.75,2,4.94,4.94,0,0,1,.46,3.78,3.15,3.15,0,0,1-.28.65A14.16,14.16,0,0,1,71.73,23c-1.47,5.23-5.34,9.13-9.64,9.7Z"/><path d="M59.11,35.92A3.85,3.85,0,0,1,56,29.77a1,1,0,0,1,1.6,1.2,1.85,1.85,0,1,0,3.32,1,1,1,0,0,1,.87-1.16,1,1,0,0,1,1.1.83l0,.18a3.81,3.81,0,0,1-.13,1.33A3.85,3.85,0,0,1,59.11,35.92Z"/><path d="M57.42,26.75a1,1,0,0,1-1-.8,15.8,15.8,0,0,1,3.64-13.21,1,1,0,1,1,1.49,1.34A13.81,13.81,0,0,0,58.4,25.55a1,1,0,0,1-.79,1.18Z"/><path d="M15.4,42.52a1,1,0,0,1-1-.79A6.19,6.19,0,1,1,26.64,40a1,1,0,0,1-2,.13,4.19,4.19,0,1,0-8.27,1.17,1,1,0,0,1-.76,1.19Z"/><path d="M8.89,50.47a1,1,0,0,1-.76-.34,6.19,6.19,0,0,1,7.69-9.46,1,1,0,0,1-1,1.75,4.19,4.19,0,0,0-5.2,6.4,1,1,0,0,1-.75,1.66Z"/><path d="M13.16,58.61A6.19,6.19,0,0,1,8.07,48.9,1,1,0,1,1,9.71,50a4.19,4.19,0,1,0,7.59,2.91,1,1,0,1,1,2,.25,6.19,6.19,0,0,1-6.13,5.41Z"/><path d="M28.68,47.34l-.51,0a1,1,0,1,1,.21-2A2.86,2.86,0,0,0,30,45a2.85,2.85,0,1,0-3.51-4.32,1,1,0,1,1-1.57-1.24,4.85,4.85,0,1,1,3.8,7.87Z"/><path d="M16.54,50.78a4.85,4.85,0,0,1-4.48-3A1,1,0,0,1,13.91,47a2.85,2.85,0,0,0,5,.49,1,1,0,1,1,1.67,1.11A4.85,4.85,0,0,1,16.54,50.78Z"/><path d="M23.55,61a1,1,0,0,1-.8-.4l-5.21-6.85a1,1,0,1,1,1.59-1.21l5.21,6.85a1,1,0,0,1-.79,1.6Z"/><path d="M28.4,60.88A1,1,0,0,1,27.94,59l2.81-1.42L27.39,46.76a1,1,0,0,1,1.91-.59l3.62,11.62a1,1,0,0,1-.5,1.19l-3.57,1.8A1,1,0,0,1,28.4,60.88Z"/><path d="M28.4,60.88a1,1,0,0,1-.89-.55l-4.05-8a1,1,0,1,1,1.79-.9l4.05,8a1,1,0,0,1-.89,1.45Z"/><path d="M80.34,16.68a3.84,3.84,0,1,1,3.84-3.84A3.85,3.85,0,0,1,80.34,16.68Zm0-5.68a1.84,1.84,0,1,0,1.84,1.84A1.84,1.84,0,0,0,80.34,11Z"/><path d="M58.89,47.16a3.84,3.84,0,1,1,3.84-3.84A3.85,3.85,0,0,1,58.89,47.16Zm0-5.68a1.84,1.84,0,1,0,1.84,1.84A1.84,1.84,0,0,0,58.89,41.48Z"/><path d="M38.72,55.27a3.84,3.84,0,1,1,3.84-3.84A3.85,3.85,0,0,1,38.72,55.27Zm0-5.68a1.84,1.84,0,1,0,1.84,1.84A1.84,1.84,0,0,0,38.72,49.59Z"/><path d="M13.13,32.38A3.84,3.84,0,1,1,17,28.54,3.85,3.85,0,0,1,13.13,32.38Zm0-5.68A1.84,1.84,0,1,0,15,28.54,1.84,1.84,0,0,0,13.13,26.7Z"/><path d="M50,91h0C29.39,91,15,78.25,15,60a1,1,0,0,1,1-1H84a1,1,0,0,1,1,1C85,78.25,70.61,91,50,91ZM17,61c.5,16.79,13.63,28,33,28h0c19.36,0,32.48-11.21,33-28Z"/><path d="M25.64,72.22a1,1,0,0,1-.83-.45q-.52-.79-1-1.62a1,1,0,0,1,1.74-1q.44.77.93,1.51a1,1,0,0,1-.83,1.55Z"/><path d="M36.78,81.93a1,1,0,0,1-.45-.11c-.7-.35-1.39-.73-2-1.13s-1.59-1-2.34-1.54a29.93,29.93,0,0,1-3.64-3.1L28,75.7a8.68,8.68,0,0,1-.76-.82,1,1,0,0,1,1.53-1.29,7.06,7.06,0,0,0,.62.67l.38.37a27.93,27.93,0,0,0,3.39,2.89c.7.51,1.44,1,2.19,1.44s1.27.73,1.93,1.06a1,1,0,0,1-.45,1.89Z"/><path d="M83,67H17a1,1,0,0,1,0-2H83a1,1,0,0,1,0,2Z"/><text x="0" y="115" fill="#000000" font-size="5px" font-weight="bold" font-family="'Helvetica Neue', Helvetica, Arial-Unicode, Arial, Sans-serif">Created by Maria Kislitsina</text><text x="0" y="120" fill="#000000" font-size="5px" font-weight="bold" font-family="'Helvetica Neue', Helvetica, Arial-Unicode, Arial, Sans-serif">from the Noun Project</text></svg>