<svg xmlns="http://www.w3.org/2000/svg"  viewBox="0 0 128 128" width="1024px" height="1024px"><path d="M 67 0.90039062 C 65.3 0.90039062 64 2.2003906 64 3.9003906 L 64 42.099609 C 64 49.199609 69.2 55.199609 76 56.599609 L 76 124.40039 C 76 126.10039 77.3 127.40039 79 127.40039 C 80.7 127.40039 82 126.10039 82 124.40039 L 82 56.599609 C 88.8 55.199609 93.900391 49.1 93.900391 42 L 94 4 C 94 2.3 92.799609 1.0003906 91.099609 0.90039062 C 89.399609 0.90039062 88 2.2003906 88 3.9003906 L 88 42.099609 C 88 46.999609 83.9 50.900391 79 50.900391 C 74 50.900391 70 46.999609 70 42.099609 L 70 3.9003906 C 70 2.3003906 68.7 0.90039062 67 0.90039062 z M 79 1 C 77.3 1 76 2.3 76 4 L 76 28.900391 C 76 30.600391 77.3 31.900391 79 31.900391 C 80.7 31.900391 82 30.600391 82 28.900391 L 82 4 C 82 2.3 80.7 1 79 1 z M 123.73828 1.3828125 C 121.72441 1.2707031 119.69961 2.2882813 117.59961 4.3007812 C 113.49961 8.2007813 109.59961 15.900781 107.09961 24.800781 C 104.99961 32.100781 102.99961 43.499609 105.09961 56.099609 C 106.09961 62.399609 108.29961 68.500781 111.59961 74.300781 C 112.39961 75.700781 114.19922 76.300391 115.69922 75.400391 C 117.09922 74.600391 117.70078 72.800781 116.80078 71.300781 C 113.90078 66.100781 111.9 60.699609 111 55.099609 C 107.9 36.599609 114.49922 17.800391 120.19922 10.400391 C 120.49922 10.000391 120.8 9.7003906 121 9.4003906 L 121 124.5 C 121 126.2 122.3 127.5 124 127.5 C 125.7 127.5 127 126.2 127 124.5 L 127 4.5 C 127 3 125.99961 1.8 124.59961 1.5 C 124.31211 1.4375 124.02598 1.3988281 123.73828 1.3828125 z M 3.9023438 1.8515625 C 2.5201172 1.8830078 1.2625 2.9007813 1 4.3007812 C 0.8 6.0007813 1.9 7.5007812 3.5 7.8007812 C 31 12.400781 51 36 51 64 C 51 92 31 115.59922 3.5 120.19922 C 1.9 120.49922 0.8 121.99922 1 123.69922 C 1.2 125.19922 2.5 126.19922 4 126.19922 L 4.5 126.19922 C 34.9 120.99922 57 94.9 57 64 C 57 33.1 34.9 7.0003906 4.5 1.9003906 C 4.3 1.8628906 4.0998047 1.8470703 3.9023438 1.8515625 z M 4.1972656 26.380859 C 2.7945313 26.25918 1.4496094 27.199609 1.0996094 28.599609 C 0.59960938 30.199609 1.5992188 31.900781 3.1992188 32.300781 C 17.199219 36.300781 27 49.4 27 64 C 27 78.6 17.199219 91.699219 3.1992188 95.699219 C 1.5992187 96.199219 0.69960937 97.800391 1.0996094 99.400391 C 1.4996094 100.70039 2.7 101.59961 4 101.59961 C 4.3 101.59961 4.6007813 101.6 4.8007812 101.5 C 21.400781 96.7 33 81.3 33 64 C 33 46.7 21.400781 31.3 4.8007812 26.5 C 4.6007812 26.4375 4.3976562 26.398242 4.1972656 26.380859 z"/></svg>